/* XPM */
static char * icon_xpm[] = {
"128 128 5 1",
" 	c None",
".	c #00320C",
"+	c #00310C",
"@	c #00310B",
"#	c #00300B",
"                                                                                                                                ",
"                                                                                                                                ",
"                                                                                                                                ",
"                                                                                                                                ",
"                                                                                                                                ",
"                                                                                                                                ",
"                                                                                                                                ",
"                                                                                                                                ",
"                                                                                                                                ",
"                                                                                                                                ",
"                                                                                                                                ",
"                                                                                                                                ",
"                                                                                                                                ",
"                                                                                                                                ",
"                                                                                                                                ",
"                                                                                                                                ",
"                                                                                                                                ",
"                                                         ................                                                       ",
"                                                     ......................+.                                                   ",
"                                                 ....+............................                                              ",
"                                              ......................................                                            ",
"                                            ...........................................                                         ",
"                                          ................++@............................                                       ",
"                                        ..............+@#######.......#####@..............                                      ",
"                                      ...@...........############ ##########................                                    ",
"                                     ..@@..........###########      ########..................                                  ",
"                                   ..@@..........+#########            #####...................                                 ",
"                                  ..@@..........##########              ####....................                                ",
"                                 .@@+..........#########                  ##.....................                               ",
"                                ..@...........#########                    #......................                              ",
"                               ..@...........@########                      #......................                             ",
"                             ...@...........+########                        ....................+..@                           ",
"                             ..@...........+########                          ....................@@.                           ",
"                            ..@+...........########                            ....................+@.                          ",
"                           ..@@...........@#######                              ....................@@.                         ",
"                          ...............@########                               #...................@..                        ",
"                         ................########                                 #######@..............@                       ",
"                        ................+#######                                  ########+...............                      ",
"                        ................########                                   #######................                      ",
"                       ..................######                                     #####..................                     ",
"                      ...................######                                     #####...................                    ",
"                      ....................####                                      ####...................@                    ",
"                     .....................####                                       ###...................@.                   ",
"                     .....................###                                        ###....................@                   ",
"                    ......................###                                         ##......................                  ",
"                    ......................##                                          ##.....................@                  ",
"                   .......................##                                          ##.......................                 ",
"                   .......................##                                           #......................@                 ",
"                  ........................#                                            ##.......................                ",
"                  .......................##                                            ##.....................@.                ",
"                  .......................##                                             ##....................@@                ",
"                 .......................###                                             ##....................@.                ",
"                 .......................##                                              ###...................@@.               ",
"                 ......................###                                              ####...................@@               ",
"                ......................####                                              ####.....................               ",
"                ......................####                                               ####...................@               ",
"                ......................####                                               #####...................               ",
"                ......................####                                               #####...................               ",
"                ......................####                                               #####...................               ",
"               .......................####                                               #####...................#              ",
"               .......................###                                                #####....................              ",
"               .......................###                                                #####...................@              ",
"               .......................###                                                #####...................@              ",
"               ......................####                                                #####....................              ",
"               ......................####                                                #####...................@              ",
"               .....................#####                                                #####...................@              ",
"               ....................######                                                #####....................              ",
"               ....................######                                                ######.................@@              ",
"               ....................######                                                ######.................@@              ",
"               .....................#####                                                #####.................@@@              ",
"               .....................#####                                                #####..................@@              ",
"               ......................####                                                ####...................@@              ",
"               ......................#####                                               ####...................@.              ",
"                .....................#####                                               ####...................@@              ",
"                .....................#####                                               ###....................@               ",
"                ......................####                                               ###.....................               ",
"                ......................####                                               ##.....................@               ",
"                .......................###                                               ##.....................@               ",
"                 ......................###                                              ###......................               ",
"                 ......................####                                             ###....................@.               ",
"                 ......................####                                             ###...................@@                ",
"                  .....................####                                             ###...................@.                ",
"                  ......................###                                            ###....................@.                ",
"                  .......................###                                           ##.....................@                 ",
"                   .......................##                                           #.......................                 ",
"                   ........................#                                           #.......................                 ",
"                    .......................##                                         #......................@                  ",
"                    ........................#                                         #.......................                  ",
"                     .......................#                                         #......................                   ",
"                     .......................##                                       ##......................                   ",
"                      ......................###                                      ##.....................                    ",
"                      ......................###                                     ###.....................                    ",
"                       .....................###                                     ###....................                     ",
"                        ....................####                                   ####...................                      ",
"                        ...................######                                  #####..................                      ",
"                         ..................######                                 ######.................                       ",
"                          @...............########                               ########...............                        ",
"                           ...............+########                              #######@..............                         ",
"                            ...............#########                            ########..............                          ",
"                             ..............+########                           ####..................                           ",
"                             ...............+########                         ###....................                           ",
"                               ..............@#########                      ###...................                             ",
"                                ....................####                    ###...................                              ",
"                                 @....................###                  ###...................                               ",
"                                  @....................####               ####..................                                ",
"                                   .....................####            #####..................                                 ",
"                                     ....................#####        #.......................                                  ",
"                                      ........................ .............................                                    ",
"                                        ..................................................                                      ",
"                                          ...............................................                                       ",
"                                            ...........................................                                         ",
"                                              ......................................                                            ",
"                                                 .................................                                              ",
"                                                    ...........................                                                 ",
"                                                        ..................                                                      ",
"                                                                                                                                ",
"                                                                                                                                ",
"                                                                                                                                ",
"                                                                                                                                ",
"                                                                                                                                ",
"                                                                                                                                ",
"                                                                                                                                ",
"                                                                                                                                ",
"                                                                                                                                ",
"                                                                                                                                ",
"                                                                                                                                ",
"                                                                                                                                ",
"                                                                                                                                "};
