/* XPM */
static char * icon_active_xpm[] = {
"128 128 2 1",
" 	c None",
".	c #E8F7C2",
"                                                                                                                                ",
"                                                                                                                                ",
"                                                                                                                                ",
"                                                                                                                                ",
"                                                                                                                                ",
"                                                                                                                                ",
"                                                                                                                                ",
"                                                                                                                                ",
"                                                                                                                                ",
"                                                                                                                                ",
"                                                                                                                                ",
"                                                                                                                                ",
"                                                                                                                                ",
"                                                                                                                                ",
"                                                                                                                                ",
"                                                                                                                                ",
"                                                                                                                                ",
"                                                         ................                                                       ",
"                                                     ........................                                                   ",
"                                                 .................................                                              ",
"                                              ......................................                                            ",
"                                            ...........................................                                         ",
"                                          ...............................................                                       ",
"                                        ..................................................                                      ",
"                                      ........................... ..........................                                    ",
"                                     .........................      ..........................                                  ",
"                                   ........................            ........................                                 ",
"                                  ........................              ........................                                ",
"                                 .......................                  .......................                               ",
"                                .......................                    .......................                              ",
"                               .......................                      .......................                             ",
"                             ........................                        ........................                           ",
"                             .......................                          .......................                           ",
"                            .......................                            .......................                          ",
"                           .......................                              .......................                         ",
"                          ........................                               .......................                        ",
"                         ........................                                 .......................                       ",
"                        ........................                                  ........................                      ",
"                        ........................                                   .......................                      ",
"                       ........................                                     .......................                     ",
"                      .........................                                     ........................                    ",
"                      ........................                                      ........................                    ",
"                     .........................                                       ........................                   ",
"                     ........................                                        ........................                   ",
"                    .........................                                         ........................                  ",
"                    ........................                                          ........................                  ",
"                   .........................                                          .........................                 ",
"                   .........................                                           ........................                 ",
"                  .........................                                            .........................                ",
"                  .........................                                            .........................                ",
"                  .........................                                             ........................                ",
"                 ..........................                                             ........................                ",
"                 .........................                                              .........................               ",
"                 .........................                                              .........................               ",
"                ..........................                                              .........................               ",
"                ..........................                                               ........................               ",
"                ..........................                                               ........................               ",
"                ..........................                                               ........................               ",
"                ..........................                                               ........................               ",
"               ...........................                                               .........................              ",
"               ..........................                                                .........................              ",
"               ..........................                                                .........................              ",
"               ..........................                                                .........................              ",
"               ..........................                                                .........................              ",
"               ..........................                                                .........................              ",
"               ..........................                                                .........................              ",
"               ..........................                                                .........................              ",
"               ..........................                                                .........................              ",
"               ..........................                                                .........................              ",
"               ..........................                                                .........................              ",
"               ..........................                                                .........................              ",
"               ..........................                                                .........................              ",
"               ...........................                                               .........................              ",
"                ..........................                                               .........................              ",
"                ..........................                                               ........................               ",
"                ..........................                                               ........................               ",
"                ..........................                                               ........................               ",
"                ..........................                                               ........................               ",
"                 .........................                                              .........................               ",
"                 ..........................                                             .........................               ",
"                 ..........................                                             ........................                ",
"                  .........................                                             ........................                ",
"                  .........................                                            .........................                ",
"                  ..........................                                           ........................                 ",
"                   .........................                                           ........................                 ",
"                   .........................                                           ........................                 ",
"                    .........................                                         ........................                  ",
"                    .........................                                         ........................                  ",
"                     ........................                                         .......................                   ",
"                     .........................                                       ........................                   ",
"                      .........................                                      .......................                    ",
"                      .........................                                     ........................                    ",
"                       ........................                                     .......................                     ",
"                        ........................                                   .......................                      ",
"                        .........................                                  .......................                      ",
"                         ........................                                 .......................                       ",
"                          ........................                               .......................                        ",
"                           ........................                              ......................                         ",
"                            ........................                            ......................                          ",
"                             .......................                           ......................                           ",
"                             ........................                         .......................                           ",
"                               ........................                      ......................                             ",
"                                ........................                    ......................                              ",
"                                 ........................                  ......................                               ",
"                                  .........................               ......................                                ",
"                                   .........................            .......................                                 ",
"                                     .........................        ........................                                  ",
"                                      ........................ .............................                                    ",
"                                        ..................................................                                      ",
"                                          ...............................................                                       ",
"                                            ...........................................                                         ",
"                                              ......................................                                            ",
"                                                 .................................                                              ",
"                                                    ...........................                                                 ",
"                                                        ..................                                                      ",
"                                                                                                                                ",
"                                                                                                                                ",
"                                                                                                                                ",
"                                                                                                                                ",
"                                                                                                                                ",
"                                                                                                                                ",
"                                                                                                                                ",
"                                                                                                                                ",
"                                                                                                                                ",
"                                                                                                                                ",
"                                                                                                                                ",
"                                                                                                                                ",
"                                                                                                                                "};
